<svg width="1337" height="166" viewBox="0 0 1337 166" fill="none" xmlns="http://www.w3.org/2000/svg">
<path d="M1000 56C999.448 56 999 56.4477 999 57C999 57.5523 999.448 58 1000 58V56ZM1130.77 57L1125 51.2265L1119.23 57L1125 62.7735L1130.77 57ZM1006.25 58C1006.8 58 1007.25 57.5523 1007.25 57C1007.25 56.4477 1006.8 56 1006.25 56V58ZM1018.75 56C1018.2 56 1017.75 56.4477 1017.75 57C1017.75 57.5523 1018.2 58 1018.75 58V56ZM1031.25 58C1031.8 58 1032.25 57.5523 1032.25 57C1032.25 56.4477 1031.8 56 1031.25 56V58ZM1043.75 56C1043.2 56 1042.75 56.4477 1042.75 57C1042.75 57.5523 1043.2 58 1043.75 58V56ZM1056.25 58C1056.8 58 1057.25 57.5523 1057.25 57C1057.25 56.4477 1056.8 56 1056.25 56V58ZM1068.75 56C1068.2 56 1067.75 56.4477 1067.75 57C1067.75 57.5523 1068.2 58 1068.75 58V56ZM1081.25 58C1081.8 58 1082.25 57.5523 1082.25 57C1082.25 56.4477 1081.8 56 1081.25 56V58ZM1093.75 56C1093.2 56 1092.75 56.4477 1092.75 57C1092.75 57.5523 1093.2 58 1093.75 58V56ZM1106.25 58C1106.8 58 1107.25 57.5523 1107.25 57C1107.25 56.4477 1106.8 56 1106.25 56V58ZM1118.75 56C1118.2 56 1117.75 56.4477 1117.75 57C1117.75 57.5523 1118.2 58 1118.75 58V56ZM1000 58H1006.25V56H1000V58ZM1018.75 58H1031.25V56H1018.75V58ZM1043.75 58H1056.25V56H1043.75V58ZM1068.75 58L1081.25 58V56L1068.75 56V58ZM1093.75 58L1106.25 58V56L1093.75 56V58ZM1118.75 58H1125V56H1118.75V58Z" fill="#794187"/>
<path d="M617 56C616.448 56 616 56.4477 616 57C616 57.5523 616.448 58 617 58L617 56ZM788.774 57L783 51.2265L777.227 57L783 62.7735L788.774 57ZM622.929 58C623.481 58 623.929 57.5523 623.929 57C623.929 56.4477 623.481 56 622.929 56L622.929 58ZM634.786 56C634.233 56 633.786 56.4477 633.786 57C633.786 57.5523 634.233 58 634.786 58L634.786 56ZM646.643 58C647.195 58 647.643 57.5523 647.643 57C647.643 56.4477 647.195 56 646.643 56L646.643 58ZM658.5 56C657.948 56 657.5 56.4477 657.5 57C657.5 57.5523 657.948 58 658.5 58L658.5 56ZM670.357 58C670.909 58 671.357 57.5523 671.357 57C671.357 56.4477 670.909 56 670.357 56L670.357 58ZM682.214 56C681.662 56 681.214 56.4477 681.214 57C681.214 57.5523 681.662 58 682.214 58L682.214 56ZM694.071 58C694.624 58 695.071 57.5523 695.071 57C695.071 56.4477 694.624 56 694.071 56L694.071 58ZM705.929 56C705.376 56 704.929 56.4477 704.929 57C704.929 57.5523 705.376 58 705.929 58L705.929 56ZM717.786 58C718.338 58 718.786 57.5523 718.786 57C718.786 56.4477 718.338 56 717.786 56L717.786 58ZM729.643 56C729.091 56 728.643 56.4477 728.643 57C728.643 57.5523 729.091 58 729.643 58L729.643 56ZM741.5 58C742.052 58 742.5 57.5523 742.5 57C742.5 56.4477 742.052 56 741.5 56L741.5 58ZM753.357 56C752.805 56 752.357 56.4477 752.357 57C752.357 57.5523 752.805 58 753.357 58L753.357 56ZM765.214 58C765.767 58 766.214 57.5523 766.214 57C766.214 56.4477 765.767 56 765.214 56L765.214 58ZM777.071 56C776.519 56 776.071 56.4477 776.071 57C776.071 57.5523 776.519 58 777.071 58L777.071 56ZM617 58L622.929 58L622.929 56L617 56L617 58ZM634.786 58L646.643 58L646.643 56L634.786 56L634.786 58ZM658.5 58L670.357 58L670.357 56L658.5 56L658.5 58ZM682.214 58L694.071 58L694.071 56L682.214 56L682.214 58ZM705.929 58L717.786 58L717.786 56L705.929 56L705.929 58ZM729.643 58L741.5 58L741.5 56L729.643 56L729.643 58ZM753.357 58L765.214 58L765.214 56L753.357 56L753.357 58ZM777.071 58L783 58L783 56L777.071 56L777.071 58Z" fill="#794187"/>
<path d="M220 52C219.448 52 219 52.4477 219 53C219 53.5523 219.448 54 220 54L220 52ZM391.774 53L386 47.2265L380.227 53L386 58.7735L391.774 53ZM225.929 54C226.481 54 226.929 53.5523 226.929 53C226.929 52.4477 226.481 52 225.929 52L225.929 54ZM237.786 52C237.233 52 236.786 52.4477 236.786 53C236.786 53.5523 237.233 54 237.786 54L237.786 52ZM249.643 54C250.195 54 250.643 53.5523 250.643 53C250.643 52.4477 250.195 52 249.643 52L249.643 54ZM261.5 52C260.948 52 260.5 52.4477 260.5 53C260.5 53.5523 260.948 54 261.5 54L261.5 52ZM273.357 54C273.909 54 274.357 53.5523 274.357 53C274.357 52.4477 273.909 52 273.357 52L273.357 54ZM285.214 52C284.662 52 284.214 52.4477 284.214 53C284.214 53.5523 284.662 54 285.214 54L285.214 52ZM297.071 54C297.624 54 298.071 53.5523 298.071 53C298.071 52.4477 297.624 52 297.071 52L297.071 54ZM308.929 52C308.376 52 307.929 52.4477 307.929 53C307.929 53.5523 308.376 54 308.929 54L308.929 52ZM320.786 54C321.338 54 321.786 53.5523 321.786 53C321.786 52.4477 321.338 52 320.786 52L320.786 54ZM332.643 52C332.091 52 331.643 52.4477 331.643 53C331.643 53.5523 332.091 54 332.643 54L332.643 52ZM344.5 54C345.052 54 345.5 53.5523 345.5 53C345.5 52.4477 345.052 52 344.5 52L344.5 54ZM356.357 52C355.805 52 355.357 52.4477 355.357 53C355.357 53.5523 355.805 54 356.357 54L356.357 52ZM368.214 54C368.767 54 369.214 53.5523 369.214 53C369.214 52.4477 368.767 52 368.214 52L368.214 54ZM380.071 52C379.519 52 379.071 52.4477 379.071 53C379.071 53.5523 379.519 54 380.071 54L380.071 52ZM220 54L225.929 54L225.929 52L220 52L220 54ZM237.786 54L249.643 54L249.643 52L237.786 52L237.786 54ZM261.5 54L273.357 54L273.357 52L261.5 52L261.5 54ZM285.214 54L297.071 54L297.071 52L285.214 52L285.214 54ZM308.929 54L320.786 54L320.786 52L308.929 52L308.929 54ZM332.643 54L344.5 54L344.5 52L332.643 52L332.643 54ZM356.357 54L368.214 54L368.214 52L356.357 52L356.357 54ZM380.071 54L386 54L386 52L380.071 52L380.071 54Z" fill="#794187"/>
<path d="M1121.38 157.336H1129.73V160H1118.06V144.16H1121.38V157.336ZM1133.8 146.272C1133.11 146.272 1132.6 146.128 1132.26 145.84C1131.93 145.536 1131.76 145.096 1131.76 144.52C1131.76 143.928 1131.93 143.488 1132.26 143.2C1132.6 142.896 1133.11 142.744 1133.8 142.744C1134.49 142.744 1135 142.896 1135.33 143.2C1135.67 143.488 1135.84 143.928 1135.84 144.52C1135.84 145.096 1135.67 145.536 1135.33 145.84C1135 146.128 1134.49 146.272 1133.8 146.272ZM1135.43 148V160H1132.14V148H1135.43ZM1143.72 160.24C1142.5 160.24 1141.39 160.024 1140.38 159.592C1139.39 159.16 1138.58 158.552 1137.96 157.768L1139.85 155.848C1140.24 156.424 1140.75 156.896 1141.39 157.264C1142.03 157.632 1142.79 157.816 1143.67 157.816C1144.29 157.816 1144.79 157.728 1145.16 157.552C1145.54 157.36 1145.73 157.064 1145.73 156.664C1145.73 156.408 1145.64 156.192 1145.47 156.016C1145.29 155.824 1144.94 155.672 1144.41 155.56L1142.3 155.128C1140.91 154.84 1139.92 154.408 1139.32 153.832C1138.75 153.24 1138.46 152.48 1138.46 151.552C1138.46 150.896 1138.65 150.28 1139.04 149.704C1139.44 149.128 1140.03 148.664 1140.81 148.312C1141.6 147.944 1142.57 147.76 1143.74 147.76C1144.94 147.76 1145.98 147.952 1146.86 148.336C1147.76 148.704 1148.46 149.256 1148.97 149.992L1147 151.912C1146.65 151.352 1146.19 150.928 1145.61 150.64C1145.05 150.336 1144.46 150.184 1143.84 150.184C1143.39 150.184 1143 150.232 1142.68 150.328C1142.36 150.424 1142.12 150.56 1141.96 150.736C1141.8 150.896 1141.72 151.104 1141.72 151.36C1141.72 151.616 1141.84 151.84 1142.06 152.032C1142.28 152.208 1142.69 152.36 1143.28 152.488L1145.73 152.992C1146.92 153.232 1147.76 153.64 1148.28 154.216C1148.79 154.776 1149.04 155.456 1149.04 156.256C1149.04 157.024 1148.84 157.712 1148.42 158.32C1148.02 158.912 1147.42 159.384 1146.62 159.736C1145.84 160.072 1144.87 160.24 1143.72 160.24ZM1155.91 144.328V156.088C1155.91 156.664 1156.06 157.088 1156.35 157.36C1156.65 157.616 1157.06 157.744 1157.57 157.744C1157.97 157.744 1158.32 157.688 1158.63 157.576C1158.93 157.448 1159.2 157.28 1159.44 157.072L1159.97 159.256C1159.59 159.56 1159.11 159.8 1158.53 159.976C1157.95 160.152 1157.35 160.24 1156.71 160.24C1155.91 160.24 1155.19 160.12 1154.57 159.88C1153.96 159.64 1153.48 159.256 1153.13 158.728C1152.79 158.2 1152.63 157.496 1152.63 156.616V145.24L1155.91 144.328ZM1159.75 148V150.448H1150.42V148H1159.75ZM1181.69 144.16V146.824H1176.38V160H1173.07V146.824H1167.74V144.16H1181.69ZM1183.77 160V142.744H1187.06V150.04C1187.45 149.272 1187.97 148.704 1188.65 148.336C1189.32 147.952 1190.08 147.76 1190.93 147.76C1191.76 147.76 1192.49 147.92 1193.13 148.24C1193.79 148.56 1194.3 149.048 1194.67 149.704C1195.05 150.344 1195.25 151.152 1195.25 152.128V160H1191.96V153.088C1191.96 152.048 1191.76 151.336 1191.36 150.952C1190.96 150.552 1190.45 150.352 1189.82 150.352C1189.36 150.352 1188.91 150.464 1188.48 150.688C1188.06 150.896 1187.72 151.248 1187.45 151.744C1187.19 152.224 1187.06 152.864 1187.06 153.664V160H1183.77ZM1204.2 160.24C1202.94 160.24 1201.83 159.992 1200.89 159.496C1199.96 159 1199.24 158.288 1198.73 157.36C1198.22 156.432 1197.96 155.312 1197.96 154C1197.96 152.688 1198.22 151.568 1198.73 150.64C1199.24 149.712 1199.95 149 1200.87 148.504C1201.79 148.008 1202.85 147.76 1204.03 147.76C1205.25 147.76 1206.28 148.008 1207.13 148.504C1207.98 148.984 1208.63 149.648 1209.07 150.496C1209.52 151.328 1209.75 152.28 1209.75 153.352C1209.75 153.672 1209.74 153.976 1209.72 154.264C1209.71 154.552 1209.68 154.808 1209.65 155.032H1200.07V152.752H1208.21L1206.63 153.328C1206.63 152.32 1206.39 151.544 1205.93 151C1205.48 150.456 1204.84 150.184 1204.01 150.184C1203.4 150.184 1202.87 150.328 1202.43 150.616C1201.99 150.904 1201.67 151.336 1201.44 151.912C1201.22 152.472 1201.11 153.184 1201.11 154.048C1201.11 154.896 1201.23 155.6 1201.47 156.16C1201.72 156.704 1202.07 157.112 1202.52 157.384C1202.99 157.656 1203.54 157.792 1204.18 157.792C1204.88 157.792 1205.45 157.656 1205.88 157.384C1206.31 157.112 1206.65 156.736 1206.89 156.256L1209.51 157.264C1209.25 157.888 1208.86 158.424 1208.33 158.872C1207.82 159.32 1207.2 159.664 1206.48 159.904C1205.78 160.128 1205.02 160.24 1204.2 160.24ZM1212.53 160V148H1215.48L1215.6 150.16C1216 149.36 1216.55 148.76 1217.24 148.36C1217.94 147.96 1218.72 147.76 1219.56 147.76C1220.43 147.76 1221.2 147.96 1221.89 148.36C1222.6 148.76 1223.12 149.352 1223.48 150.136C1223.73 149.608 1224.08 149.168 1224.51 148.816C1224.94 148.464 1225.42 148.2 1225.95 148.024C1226.48 147.848 1227.01 147.76 1227.56 147.76C1228.34 147.76 1229.05 147.92 1229.69 148.24C1230.35 148.56 1230.87 149.04 1231.25 149.68C1231.64 150.32 1231.83 151.136 1231.83 152.128V160H1228.54V152.776C1228.54 151.896 1228.35 151.272 1227.96 150.904C1227.58 150.536 1227.08 150.352 1226.48 150.352C1226 150.352 1225.55 150.472 1225.13 150.712C1224.73 150.952 1224.41 151.312 1224.17 151.792C1223.95 152.256 1223.84 152.84 1223.84 153.544V160H1220.55V152.776C1220.55 151.896 1220.35 151.272 1219.95 150.904C1219.56 150.536 1219.07 150.352 1218.46 150.352C1218.04 150.352 1217.63 150.464 1217.21 150.688C1216.81 150.912 1216.48 151.264 1216.2 151.744C1215.95 152.224 1215.82 152.856 1215.82 153.64V160H1212.53ZM1254.75 146.824H1246.2V150.856H1252.95V153.52H1246.2V160H1242.89V144.16H1254.75V146.824ZM1261.5 147.76C1262.72 147.76 1263.78 148.008 1264.7 148.504C1265.62 149 1266.34 149.712 1266.86 150.64C1267.38 151.568 1267.65 152.688 1267.65 154C1267.65 155.296 1267.38 156.416 1266.86 157.36C1266.34 158.288 1265.62 159 1264.7 159.496C1263.78 159.992 1262.72 160.24 1261.5 160.24C1260.3 160.24 1259.24 159.992 1258.31 159.496C1257.38 159 1256.66 158.288 1256.13 157.36C1255.62 156.416 1255.36 155.296 1255.36 154C1255.36 152.688 1255.62 151.568 1256.13 150.64C1256.66 149.712 1257.38 149 1258.31 148.504C1259.24 148.008 1260.3 147.76 1261.5 147.76ZM1261.5 150.208C1260.9 150.208 1260.38 150.352 1259.94 150.64C1259.53 150.912 1259.21 151.328 1258.98 151.888C1258.76 152.448 1258.65 153.152 1258.65 154C1258.65 154.848 1258.76 155.552 1258.98 156.112C1259.21 156.672 1259.53 157.096 1259.94 157.384C1260.38 157.656 1260.9 157.792 1261.5 157.792C1262.1 157.792 1262.6 157.656 1263.02 157.384C1263.45 157.096 1263.78 156.672 1264 156.112C1264.22 155.552 1264.34 154.848 1264.34 154C1264.34 153.152 1264.22 152.448 1264 151.888C1263.78 151.328 1263.45 150.912 1263.02 150.64C1262.6 150.352 1262.1 150.208 1261.5 150.208ZM1270.4 160V148H1273.26L1273.47 150.352C1273.79 149.52 1274.26 148.88 1274.86 148.432C1275.49 147.984 1276.26 147.76 1277.19 147.76C1277.46 147.76 1277.71 147.784 1277.94 147.832C1278.16 147.88 1278.34 147.944 1278.49 148.024L1278.1 150.784C1277.94 150.72 1277.74 150.672 1277.5 150.64C1277.28 150.608 1276.98 150.592 1276.62 150.592C1276.14 150.592 1275.67 150.712 1275.22 150.952C1274.78 151.176 1274.41 151.528 1274.12 152.008C1273.83 152.472 1273.69 153.064 1273.69 153.784V160H1270.4ZM1293.54 143.92C1294.98 143.92 1296.24 144.168 1297.33 144.664C1298.42 145.16 1299.34 145.896 1300.11 146.872L1298.26 149.008C1297.61 148.176 1296.89 147.568 1296.1 147.184C1295.34 146.784 1294.44 146.584 1293.42 146.584C1292.74 146.584 1292.18 146.672 1291.74 146.848C1291.3 147.024 1290.98 147.256 1290.78 147.544C1290.58 147.832 1290.49 148.152 1290.49 148.504C1290.49 148.936 1290.66 149.304 1290.99 149.608C1291.33 149.896 1291.9 150.136 1292.72 150.328L1295.67 151C1297.24 151.352 1298.36 151.88 1299.03 152.584C1299.72 153.272 1300.06 154.168 1300.06 155.272C1300.06 156.312 1299.79 157.208 1299.25 157.96C1298.7 158.696 1297.94 159.264 1296.97 159.664C1295.99 160.048 1294.87 160.24 1293.61 160.24C1292.5 160.24 1291.49 160.112 1290.56 159.856C1289.65 159.584 1288.83 159.216 1288.11 158.752C1287.39 158.288 1286.79 157.752 1286.31 157.144L1288.18 154.912C1288.55 155.424 1289.01 155.88 1289.55 156.28C1290.1 156.68 1290.71 157 1291.4 157.24C1292.1 157.464 1292.84 157.576 1293.61 157.576C1294.26 157.576 1294.82 157.504 1295.26 157.36C1295.73 157.2 1296.07 156.984 1296.3 156.712C1296.54 156.424 1296.66 156.08 1296.66 155.68C1296.66 155.264 1296.51 154.912 1296.22 154.624C1295.95 154.32 1295.44 154.088 1294.69 153.928L1291.47 153.208C1290.54 152.984 1289.74 152.696 1289.07 152.344C1288.42 151.976 1287.91 151.512 1287.56 150.952C1287.22 150.376 1287.06 149.696 1287.06 148.912C1287.06 147.968 1287.31 147.12 1287.82 146.368C1288.34 145.616 1289.07 145.024 1290.03 144.592C1291.01 144.144 1292.18 143.92 1293.54 143.92ZM1309.56 152.344C1309.56 151.656 1309.36 151.12 1308.96 150.736C1308.58 150.352 1308.06 150.16 1307.42 150.16C1306.83 150.16 1306.31 150.312 1305.86 150.616C1305.42 150.92 1305.09 151.424 1304.88 152.128L1302.07 151.264C1302.34 150.208 1302.94 149.36 1303.85 148.72C1304.78 148.08 1306.02 147.76 1307.57 147.76C1308.62 147.76 1309.54 147.928 1310.33 148.264C1311.11 148.584 1311.72 149.072 1312.15 149.728C1312.6 150.384 1312.82 151.208 1312.82 152.2V157.072C1312.82 157.68 1313.11 157.984 1313.69 157.984C1313.96 157.984 1314.22 157.944 1314.46 157.864L1314.26 159.904C1313.85 160.112 1313.33 160.216 1312.7 160.216C1312.14 160.216 1311.64 160.12 1311.19 159.928C1310.74 159.736 1310.39 159.448 1310.14 159.064C1309.88 158.664 1309.75 158.168 1309.75 157.576V157.48L1310.33 157.384C1310.23 157.992 1309.97 158.512 1309.54 158.944C1309.1 159.36 1308.58 159.68 1307.95 159.904C1307.34 160.128 1306.71 160.24 1306.06 160.24C1305.24 160.24 1304.54 160.12 1303.94 159.88C1303.35 159.624 1302.9 159.256 1302.58 158.776C1302.26 158.296 1302.1 157.704 1302.1 157C1302.1 156.104 1302.38 155.376 1302.96 154.816C1303.54 154.24 1304.36 153.848 1305.43 153.64L1309.94 152.728L1309.92 154.768L1307.04 155.344C1306.5 155.456 1306.08 155.608 1305.79 155.8C1305.52 155.976 1305.38 156.272 1305.38 156.688C1305.38 157.088 1305.53 157.392 1305.82 157.6C1306.12 157.808 1306.48 157.912 1306.9 157.912C1307.23 157.912 1307.56 157.872 1307.88 157.792C1308.2 157.712 1308.49 157.584 1308.74 157.408C1309 157.232 1309.2 156.992 1309.34 156.688C1309.49 156.384 1309.56 156.016 1309.56 155.584V152.344ZM1319.74 142.744V156.304C1319.74 156.864 1319.84 157.256 1320.03 157.48C1320.22 157.704 1320.54 157.816 1320.99 157.816C1321.26 157.816 1321.49 157.8 1321.66 157.768C1321.84 157.72 1322.06 157.656 1322.33 157.576L1322.05 159.736C1321.77 159.896 1321.43 160.016 1321.01 160.096C1320.61 160.192 1320.21 160.24 1319.81 160.24C1318.65 160.24 1317.79 159.96 1317.25 159.4C1316.72 158.824 1316.45 157.912 1316.45 156.664V142.744H1319.74ZM1329.73 160.24C1328.47 160.24 1327.37 159.992 1326.42 159.496C1325.49 159 1324.77 158.288 1324.26 157.36C1323.75 156.432 1323.49 155.312 1323.49 154C1323.49 152.688 1323.75 151.568 1324.26 150.64C1324.77 149.712 1325.49 149 1326.4 148.504C1327.33 148.008 1328.38 147.76 1329.57 147.76C1330.78 147.76 1331.81 148.008 1332.66 148.504C1333.51 148.984 1334.16 149.648 1334.61 150.496C1335.05 151.328 1335.28 152.28 1335.28 153.352C1335.28 153.672 1335.27 153.976 1335.25 154.264C1335.24 154.552 1335.21 154.808 1335.18 155.032H1325.61V152.752H1333.74L1332.16 153.328C1332.16 152.32 1331.93 151.544 1331.46 151C1331.01 150.456 1330.37 150.184 1329.54 150.184C1328.93 150.184 1328.41 150.328 1327.96 150.616C1327.53 150.904 1327.2 151.336 1326.97 151.912C1326.75 152.472 1326.64 153.184 1326.64 154.048C1326.64 154.896 1326.76 155.6 1327 156.16C1327.25 156.704 1327.61 157.112 1328.05 157.384C1328.52 157.656 1329.07 157.792 1329.71 157.792C1330.41 157.792 1330.98 157.656 1331.41 157.384C1331.85 157.112 1332.18 156.736 1332.42 156.256L1335.04 157.264C1334.78 157.888 1334.39 158.424 1333.86 158.872C1333.35 159.32 1332.73 159.664 1332.01 159.904C1331.31 160.128 1330.55 160.24 1329.73 160.24Z" fill="#FFCE4E"/>
<circle cx="1227" cy="53" r="53" fill="#372839"/>
<path d="M1244 43L1227 33L1210 43V63L1227 73L1244 63V43Z" stroke="#908294" stroke-width="3" stroke-linejoin="round"/>
<path d="M1227 51V59" stroke="#908294" stroke-width="3" stroke-linecap="round" stroke-linejoin="round"/>
<path d="M1235 47V59" stroke="#908294" stroke-width="3" stroke-linecap="round" stroke-linejoin="round"/>
<path d="M1219 55V59" stroke="#908294" stroke-width="3" stroke-linecap="round" stroke-linejoin="round"/>
<path d="M807.816 160H804.384L803.064 156.136H796.992L795.672 160H792.288L798.072 144.16H802.032L807.816 160ZM797.736 153.688H802.32L800.016 146.776L797.736 153.688ZM814.061 160.24C813.069 160.24 812.181 159.992 811.397 159.496C810.629 159 810.021 158.288 809.573 157.36C809.141 156.432 808.925 155.32 808.925 154.024C808.925 152.696 809.157 151.568 809.621 150.64C810.085 149.696 810.709 148.984 811.493 148.504C812.293 148.008 813.189 147.76 814.181 147.76C815.237 147.76 816.109 148.064 816.797 148.672C817.485 149.28 817.933 150.064 818.141 151.024L817.829 151.408V142.744H821.117V160H818.165L817.949 156.352L818.357 156.544C818.245 157.296 817.989 157.952 817.589 158.512C817.189 159.056 816.685 159.48 816.077 159.784C815.469 160.088 814.797 160.24 814.061 160.24ZM815.021 157.72C815.597 157.72 816.093 157.576 816.509 157.288C816.925 156.984 817.245 156.544 817.469 155.968C817.709 155.392 817.829 154.704 817.829 153.904C817.829 153.136 817.717 152.488 817.493 151.96C817.269 151.416 816.949 151 816.533 150.712C816.117 150.424 815.629 150.28 815.069 150.28C814.173 150.28 813.469 150.6 812.957 151.24C812.461 151.864 812.213 152.784 812.213 154C812.213 155.216 812.461 156.144 812.957 156.784C813.453 157.408 814.141 157.72 815.021 157.72ZM829.108 160.24C828.116 160.24 827.228 159.992 826.444 159.496C825.676 159 825.068 158.288 824.62 157.36C824.188 156.432 823.972 155.32 823.972 154.024C823.972 152.696 824.204 151.568 824.668 150.64C825.132 149.696 825.756 148.984 826.54 148.504C827.34 148.008 828.236 147.76 829.228 147.76C830.284 147.76 831.156 148.064 831.844 148.672C832.532 149.28 832.98 150.064 833.188 151.024L832.876 151.408V142.744H836.164V160H833.212L832.996 156.352L833.404 156.544C833.292 157.296 833.036 157.952 832.636 158.512C832.236 159.056 831.732 159.48 831.124 159.784C830.516 160.088 829.844 160.24 829.108 160.24ZM830.068 157.72C830.644 157.72 831.14 157.576 831.556 157.288C831.972 156.984 832.292 156.544 832.516 155.968C832.756 155.392 832.876 154.704 832.876 153.904C832.876 153.136 832.764 152.488 832.54 151.96C832.316 151.416 831.996 151 831.58 150.712C831.164 150.424 830.676 150.28 830.116 150.28C829.22 150.28 828.516 150.6 828.004 151.24C827.508 151.864 827.26 152.784 827.26 154C827.26 155.216 827.508 156.144 828.004 156.784C828.5 157.408 829.188 157.72 830.068 157.72ZM859.214 144.16L853.598 154.072V160H850.286V154.072L844.67 144.16H848.198L850.742 148.912L851.942 151.384L853.166 148.912L855.71 144.16H859.214ZM864.356 147.76C865.572 147.76 866.636 148.008 867.548 148.504C868.476 149 869.196 149.712 869.708 150.64C870.236 151.568 870.5 152.688 870.5 154C870.5 155.296 870.236 156.416 869.708 157.36C869.196 158.288 868.476 159 867.548 159.496C866.636 159.992 865.572 160.24 864.356 160.24C863.156 160.24 862.092 159.992 861.164 159.496C860.236 159 859.508 158.288 858.98 157.36C858.468 156.416 858.212 155.296 858.212 154C858.212 152.688 858.468 151.568 858.98 150.64C859.508 149.712 860.236 149 861.164 148.504C862.092 148.008 863.156 147.76 864.356 147.76ZM864.356 150.208C863.748 150.208 863.228 150.352 862.796 150.64C862.38 150.912 862.06 151.328 861.836 151.888C861.612 152.448 861.5 153.152 861.5 154C861.5 154.848 861.612 155.552 861.836 156.112C862.06 156.672 862.38 157.096 862.796 157.384C863.228 157.656 863.748 157.792 864.356 157.792C864.948 157.792 865.452 157.656 865.868 157.384C866.3 157.096 866.628 156.672 866.852 156.112C867.076 155.552 867.188 154.848 867.188 154C867.188 153.152 867.076 152.448 866.852 151.888C866.628 151.328 866.3 150.912 865.868 150.64C865.452 150.352 864.948 150.208 864.356 150.208ZM877.427 160.24C876.627 160.24 875.907 160.096 875.267 159.808C874.627 159.52 874.115 159.064 873.731 158.44C873.363 157.8 873.179 156.976 873.179 155.968V148H876.467V155.176C876.467 156.104 876.659 156.752 877.043 157.12C877.427 157.472 877.979 157.648 878.699 157.648C879.035 157.648 879.363 157.592 879.683 157.48C880.003 157.352 880.283 157.16 880.523 156.904C880.779 156.648 880.979 156.32 881.123 155.92C881.267 155.504 881.339 155.016 881.339 154.456V148H884.627V160H881.699L881.579 157.912C881.179 158.712 880.627 159.304 879.923 159.688C879.235 160.056 878.403 160.24 877.427 160.24ZM888.087 160V148H890.943L891.159 150.352C891.479 149.52 891.943 148.88 892.551 148.432C893.175 147.984 893.951 147.76 894.879 147.76C895.151 147.76 895.399 147.784 895.623 147.832C895.847 147.88 896.031 147.944 896.175 148.024L895.791 150.784C895.631 150.72 895.431 150.672 895.191 150.64C894.967 150.608 894.671 150.592 894.303 150.592C893.823 150.592 893.359 150.712 892.911 150.952C892.463 151.176 892.095 151.528 891.807 152.008C891.519 152.472 891.375 153.064 891.375 153.784V160H888.087ZM919.047 144.16V160H915.255L909.711 150.688L908.343 148.096H908.319L908.415 150.832V160H905.439V144.16H909.207L914.751 153.448L916.119 156.064H916.167L916.071 153.328V144.16H919.047ZM935.037 146.824H926.493V150.856H933.237V153.52H926.493V160H923.181V144.16H935.037V146.824ZM950.405 144.16V146.824H945.101V160H941.789V146.824H936.461V144.16H950.405ZM955.348 160.24C954.132 160.24 953.02 160.024 952.012 159.592C951.02 159.16 950.212 158.552 949.588 157.768L951.484 155.848C951.868 156.424 952.38 156.896 953.02 157.264C953.66 157.632 954.42 157.816 955.3 157.816C955.924 157.816 956.42 157.728 956.788 157.552C957.172 157.36 957.364 157.064 957.364 156.664C957.364 156.408 957.276 156.192 957.1 156.016C956.924 155.824 956.572 155.672 956.044 155.56L953.932 155.128C952.54 154.84 951.548 154.408 950.956 153.832C950.38 153.24 950.092 152.48 950.092 151.552C950.092 150.896 950.284 150.28 950.668 149.704C951.068 149.128 951.66 148.664 952.444 148.312C953.228 147.944 954.204 147.76 955.372 147.76C956.572 147.76 957.612 147.952 958.492 148.336C959.388 148.704 960.092 149.256 960.604 149.992L958.636 151.912C958.284 151.352 957.82 150.928 957.244 150.64C956.684 150.336 956.092 150.184 955.468 150.184C955.02 150.184 954.636 150.232 954.316 150.328C953.996 150.424 953.756 150.56 953.596 150.736C953.436 150.896 953.356 151.104 953.356 151.36C953.356 151.616 953.468 151.84 953.692 152.032C953.916 152.208 954.324 152.36 954.916 152.488L957.364 152.992C958.548 153.232 959.396 153.64 959.908 154.216C960.42 154.776 960.676 155.456 960.676 156.256C960.676 157.024 960.468 157.712 960.052 158.32C959.652 158.912 959.052 159.384 958.252 159.736C957.468 160.072 956.5 160.24 955.348 160.24Z" fill="#FFCE4E"/>
<circle cx="877" cy="53" r="53" fill="#372839"/>
<path d="M875.132 45.0078L875.5 44.9978H890.5C892.16 44.9977 893.757 45.6326 894.964 46.7725C896.17 47.9123 896.895 49.4706 896.99 51.1278L897 51.4978V66.4978C897 68.1581 896.365 69.7555 895.225 70.9623C894.084 72.1691 892.525 72.8938 890.868 72.9878L890.5 72.9978H875.5C873.84 72.998 872.242 72.3627 871.035 71.2225C869.829 70.0823 869.104 68.5235 869.01 66.8658L869 66.4998V51.4998C869 49.8396 869.635 48.2422 870.775 47.0354C871.915 45.8286 873.474 45.1038 875.132 45.0098V45.0078ZM890.5 47.9978H875.5C874.621 47.9979 873.775 48.3282 873.129 48.9232C872.483 49.5182 872.084 50.3344 872.012 51.2098L872 51.4978V66.4978C872 67.3765 872.331 68.2231 872.926 68.8693C873.521 69.5155 874.338 69.914 875.214 69.9858L875.5 69.9978H890.5C891.379 69.9978 892.225 69.6672 892.871 69.0718C893.517 68.4763 893.916 67.6596 893.988 66.7838L894 66.4978V51.4978C894 50.5696 893.631 49.6793 892.975 49.023C892.318 48.3666 891.428 47.9978 890.5 47.9978ZM883 50.9998C883.398 50.9998 883.779 51.1579 884.061 51.4392C884.342 51.7205 884.5 52.102 884.5 52.4998V57.4958H889.5C889.898 57.4958 890.279 57.6539 890.561 57.9352C890.842 58.2165 891 58.598 891 58.9958C891 59.3937 890.842 59.7752 890.561 60.0565C890.279 60.3378 889.898 60.4958 889.5 60.4958H884.5V65.4998C884.5 65.8977 884.342 66.2792 884.061 66.5605C883.779 66.8418 883.398 66.9998 883 66.9998C882.602 66.9998 882.22 66.8418 881.939 66.5605C881.658 66.2792 881.5 65.8977 881.5 65.4998V60.4958H876.5C876.102 60.4958 875.72 60.3378 875.439 60.0565C875.158 59.7752 875 59.3937 875 58.9958C875 58.598 875.158 58.2165 875.439 57.9352C875.72 57.6539 876.102 57.4958 876.5 57.4958H881.5V52.4998C881.5 52.102 881.658 51.7205 881.939 51.4392C882.22 51.1579 882.602 50.9998 883 50.9998ZM884.164 37.4658L884.268 37.8198L885.654 42.9958H882.548L881.372 38.5958C881.253 38.1516 881.048 37.7352 880.768 37.3703C880.488 37.0054 880.139 36.6993 879.741 36.4693C879.343 36.2394 878.903 36.0902 878.447 36.0302C877.991 35.9702 877.528 36.0007 877.084 36.1198L862.596 40.0038C861.75 40.2306 861.02 40.7662 860.55 41.5049C860.08 42.2435 859.903 43.1316 860.056 43.9938L860.12 44.2898L864.004 58.7778C864.186 59.4586 864.569 60.0686 865.104 60.5279C865.639 60.9871 866.299 61.2743 867 61.3518V64.3638C865.699 64.2863 864.452 63.8202 863.42 63.0257C862.388 62.2312 861.618 61.145 861.21 59.9078L861.106 59.5558L857.224 45.0658C856.794 43.4626 856.994 41.7556 857.782 40.2948C858.57 38.8341 859.888 37.7303 861.464 37.2098L861.82 37.1058L876.308 33.2238C877.911 32.7938 879.618 32.9935 881.079 33.7819C882.54 34.5703 883.643 35.8876 884.164 37.4638V37.4658Z" fill="#908294"/>
<path d="M389.624 155.632C389.32 156.656 388.84 157.512 388.184 158.2C387.528 158.888 386.752 159.4 385.856 159.736C384.96 160.072 383.976 160.24 382.904 160.24C381.336 160.24 379.976 159.912 378.824 159.256C377.688 158.6 376.808 157.664 376.184 156.448C375.576 155.232 375.272 153.776 375.272 152.08C375.272 150.384 375.576 148.928 376.184 147.712C376.808 146.496 377.688 145.56 378.824 144.904C379.976 144.248 381.32 143.92 382.856 143.92C383.944 143.92 384.928 144.072 385.808 144.376C386.688 144.664 387.432 145.112 388.04 145.72C388.664 146.328 389.12 147.096 389.408 148.024L386.408 149.296C386.136 148.336 385.72 147.656 385.16 147.256C384.6 146.84 383.88 146.632 383 146.632C382.136 146.632 381.376 146.84 380.72 147.256C380.08 147.672 379.584 148.288 379.232 149.104C378.88 149.904 378.704 150.896 378.704 152.08C378.704 153.248 378.864 154.24 379.184 155.056C379.52 155.872 380.008 156.488 380.648 156.904C381.288 157.32 382.072 157.528 383 157.528C383.864 157.528 384.608 157.296 385.232 156.832C385.872 156.368 386.32 155.664 386.576 154.72L389.624 155.632ZM392.111 160V148H394.967L395.183 150.352C395.503 149.52 395.967 148.88 396.575 148.432C397.199 147.984 397.975 147.76 398.903 147.76C399.175 147.76 399.423 147.784 399.647 147.832C399.871 147.88 400.055 147.944 400.199 148.024L399.815 150.784C399.655 150.72 399.455 150.672 399.215 150.64C398.991 150.608 398.695 150.592 398.327 150.592C397.847 150.592 397.383 150.712 396.935 150.952C396.487 151.176 396.119 151.528 395.831 152.008C395.543 152.472 395.399 153.064 395.399 153.784V160H392.111ZM407.569 160.24C406.305 160.24 405.201 159.992 404.257 159.496C403.329 159 402.609 158.288 402.097 157.36C401.585 156.432 401.329 155.312 401.329 154C401.329 152.688 401.585 151.568 402.097 150.64C402.609 149.712 403.321 149 404.233 148.504C405.161 148.008 406.217 147.76 407.401 147.76C408.617 147.76 409.649 148.008 410.497 148.504C411.345 148.984 411.993 149.648 412.441 150.496C412.889 151.328 413.113 152.28 413.113 153.352C413.113 153.672 413.105 153.976 413.089 154.264C413.073 154.552 413.049 154.808 413.017 155.032H403.441V152.752H411.577L409.993 153.328C409.993 152.32 409.761 151.544 409.297 151C408.849 150.456 408.209 150.184 407.377 150.184C406.769 150.184 406.241 150.328 405.793 150.616C405.361 150.904 405.033 151.336 404.809 151.912C404.585 152.472 404.473 153.184 404.473 154.048C404.473 154.896 404.593 155.6 404.833 156.16C405.089 156.704 405.441 157.112 405.889 157.384C406.353 157.656 406.905 157.792 407.545 157.792C408.249 157.792 408.817 157.656 409.249 157.384C409.681 157.112 410.017 156.736 410.257 156.256L412.873 157.264C412.617 157.888 412.225 158.424 411.697 158.872C411.185 159.32 410.569 159.664 409.849 159.904C409.145 160.128 408.385 160.24 407.569 160.24ZM422.74 152.344C422.74 151.656 422.54 151.12 422.14 150.736C421.756 150.352 421.244 150.16 420.604 150.16C420.012 150.16 419.492 150.312 419.044 150.616C418.596 150.92 418.268 151.424 418.06 152.128L415.252 151.264C415.524 150.208 416.116 149.36 417.028 148.72C417.956 148.08 419.196 147.76 420.748 147.76C421.804 147.76 422.724 147.928 423.508 148.264C424.292 148.584 424.9 149.072 425.332 149.728C425.78 150.384 426.004 151.208 426.004 152.2V157.072C426.004 157.68 426.292 157.984 426.868 157.984C427.14 157.984 427.396 157.944 427.636 157.864L427.444 159.904C427.028 160.112 426.508 160.216 425.884 160.216C425.324 160.216 424.82 160.12 424.372 159.928C423.924 159.736 423.572 159.448 423.316 159.064C423.06 158.664 422.932 158.168 422.932 157.576V157.48L423.508 157.384C423.412 157.992 423.148 158.512 422.716 158.944C422.284 159.36 421.756 159.68 421.132 159.904C420.524 160.128 419.892 160.24 419.236 160.24C418.42 160.24 417.716 160.12 417.124 159.88C416.532 159.624 416.076 159.256 415.756 158.776C415.436 158.296 415.276 157.704 415.276 157C415.276 156.104 415.564 155.376 416.14 154.816C416.716 154.24 417.54 153.848 418.612 153.64L423.124 152.728L423.1 154.768L420.22 155.344C419.676 155.456 419.26 155.608 418.972 155.8C418.7 155.976 418.564 156.272 418.564 156.688C418.564 157.088 418.708 157.392 418.996 157.6C419.3 157.808 419.66 157.912 420.076 157.912C420.412 157.912 420.74 157.872 421.06 157.792C421.38 157.712 421.668 157.584 421.924 157.408C422.18 157.232 422.38 156.992 422.524 156.688C422.668 156.384 422.74 156.016 422.74 155.584V152.344ZM433.46 144.328V156.088C433.46 156.664 433.604 157.088 433.892 157.36C434.196 157.616 434.604 157.744 435.116 157.744C435.516 157.744 435.868 157.688 436.172 157.576C436.476 157.448 436.748 157.28 436.988 157.072L437.516 159.256C437.132 159.56 436.652 159.8 436.076 159.976C435.5 160.152 434.892 160.24 434.252 160.24C433.452 160.24 432.74 160.12 432.116 159.88C431.508 159.64 431.028 159.256 430.676 158.728C430.34 158.2 430.172 157.496 430.172 156.616V145.24L433.46 144.328ZM437.3 148V150.448H427.964V148H437.3ZM445.093 160.24C443.829 160.24 442.725 159.992 441.781 159.496C440.853 159 440.133 158.288 439.621 157.36C439.109 156.432 438.853 155.312 438.853 154C438.853 152.688 439.109 151.568 439.621 150.64C440.133 149.712 440.845 149 441.757 148.504C442.685 148.008 443.741 147.76 444.925 147.76C446.141 147.76 447.173 148.008 448.021 148.504C448.869 148.984 449.517 149.648 449.965 150.496C450.413 151.328 450.637 152.28 450.637 153.352C450.637 153.672 450.629 153.976 450.613 154.264C450.597 154.552 450.573 154.808 450.541 155.032H440.965V152.752H449.101L447.517 153.328C447.517 152.32 447.285 151.544 446.821 151C446.373 150.456 445.733 150.184 444.901 150.184C444.293 150.184 443.765 150.328 443.317 150.616C442.885 150.904 442.557 151.336 442.333 151.912C442.109 152.472 441.997 153.184 441.997 154.048C441.997 154.896 442.117 155.6 442.357 156.16C442.613 156.704 442.965 157.112 443.413 157.384C443.877 157.656 444.429 157.792 445.069 157.792C445.773 157.792 446.341 157.656 446.773 157.384C447.205 157.112 447.541 156.736 447.781 156.256L450.397 157.264C450.141 157.888 449.749 158.424 449.221 158.872C448.709 159.32 448.093 159.664 447.373 159.904C446.669 160.128 445.909 160.24 445.093 160.24ZM473.018 144.16L467.402 154.072V160H464.09V154.072L458.474 144.16H462.002L464.546 148.912L465.746 151.384L466.97 148.912L469.514 144.16H473.018ZM478.161 147.76C479.377 147.76 480.441 148.008 481.353 148.504C482.281 149 483.001 149.712 483.513 150.64C484.041 151.568 484.305 152.688 484.305 154C484.305 155.296 484.041 156.416 483.513 157.36C483.001 158.288 482.281 159 481.353 159.496C480.441 159.992 479.377 160.24 478.161 160.24C476.961 160.24 475.897 159.992 474.969 159.496C474.041 159 473.313 158.288 472.785 157.36C472.273 156.416 472.017 155.296 472.017 154C472.017 152.688 472.273 151.568 472.785 150.64C473.313 149.712 474.041 149 474.969 148.504C475.897 148.008 476.961 147.76 478.161 147.76ZM478.161 150.208C477.553 150.208 477.033 150.352 476.601 150.64C476.185 150.912 475.865 151.328 475.641 151.888C475.417 152.448 475.305 153.152 475.305 154C475.305 154.848 475.417 155.552 475.641 156.112C475.865 156.672 476.185 157.096 476.601 157.384C477.033 157.656 477.553 157.792 478.161 157.792C478.753 157.792 479.257 157.656 479.673 157.384C480.105 157.096 480.433 156.672 480.657 156.112C480.881 155.552 480.993 154.848 480.993 154C480.993 153.152 480.881 152.448 480.657 151.888C480.433 151.328 480.105 150.912 479.673 150.64C479.257 150.352 478.753 150.208 478.161 150.208ZM491.232 160.24C490.432 160.24 489.712 160.096 489.072 159.808C488.432 159.52 487.92 159.064 487.536 158.44C487.168 157.8 486.984 156.976 486.984 155.968V148H490.272V155.176C490.272 156.104 490.464 156.752 490.848 157.12C491.232 157.472 491.784 157.648 492.504 157.648C492.84 157.648 493.168 157.592 493.488 157.48C493.808 157.352 494.088 157.16 494.328 156.904C494.584 156.648 494.784 156.32 494.928 155.92C495.072 155.504 495.144 155.016 495.144 154.456V148H498.432V160H495.504L495.384 157.912C494.984 158.712 494.432 159.304 493.728 159.688C493.04 160.056 492.208 160.24 491.232 160.24ZM501.892 160V148H504.748L504.964 150.352C505.284 149.52 505.748 148.88 506.356 148.432C506.98 147.984 507.756 147.76 508.684 147.76C508.956 147.76 509.204 147.784 509.428 147.832C509.652 147.88 509.836 147.944 509.98 148.024L509.596 150.784C509.436 150.72 509.236 150.672 508.996 150.64C508.772 150.608 508.476 150.592 508.108 150.592C507.628 150.592 507.164 150.712 506.716 150.952C506.268 151.176 505.9 151.528 505.612 152.008C505.324 152.472 505.18 153.064 505.18 153.784V160H501.892ZM532.804 155.632C532.5 156.656 532.02 157.512 531.364 158.2C530.708 158.888 529.932 159.4 529.036 159.736C528.14 160.072 527.156 160.24 526.084 160.24C524.516 160.24 523.156 159.912 522.004 159.256C520.868 158.6 519.988 157.664 519.364 156.448C518.756 155.232 518.452 153.776 518.452 152.08C518.452 150.384 518.756 148.928 519.364 147.712C519.988 146.496 520.868 145.56 522.004 144.904C523.156 144.248 524.5 143.92 526.036 143.92C527.124 143.92 528.108 144.072 528.988 144.376C529.868 144.664 530.612 145.112 531.22 145.72C531.844 146.328 532.3 147.096 532.588 148.024L529.588 149.296C529.316 148.336 528.9 147.656 528.34 147.256C527.78 146.84 527.06 146.632 526.18 146.632C525.316 146.632 524.556 146.84 523.9 147.256C523.26 147.672 522.764 148.288 522.412 149.104C522.06 149.904 521.884 150.896 521.884 152.08C521.884 153.248 522.044 154.24 522.364 155.056C522.7 155.872 523.188 156.488 523.828 156.904C524.468 157.32 525.252 157.528 526.18 157.528C527.044 157.528 527.788 157.296 528.412 156.832C529.052 156.368 529.5 155.664 529.756 154.72L532.804 155.632ZM540.763 147.76C541.979 147.76 543.043 148.008 543.955 148.504C544.883 149 545.603 149.712 546.115 150.64C546.643 151.568 546.907 152.688 546.907 154C546.907 155.296 546.643 156.416 546.115 157.36C545.603 158.288 544.883 159 543.955 159.496C543.043 159.992 541.979 160.24 540.763 160.24C539.563 160.24 538.499 159.992 537.571 159.496C536.643 159 535.915 158.288 535.387 157.36C534.875 156.416 534.619 155.296 534.619 154C534.619 152.688 534.875 151.568 535.387 150.64C535.915 149.712 536.643 149 537.571 148.504C538.499 148.008 539.563 147.76 540.763 147.76ZM540.763 150.208C540.155 150.208 539.635 150.352 539.203 150.64C538.787 150.912 538.467 151.328 538.243 151.888C538.019 152.448 537.907 153.152 537.907 154C537.907 154.848 538.019 155.552 538.243 156.112C538.467 156.672 538.787 157.096 539.203 157.384C539.635 157.656 540.155 157.792 540.763 157.792C541.355 157.792 541.859 157.656 542.275 157.384C542.707 157.096 543.035 156.672 543.259 156.112C543.483 155.552 543.595 154.848 543.595 154C543.595 153.152 543.483 152.448 543.259 151.888C543.035 151.328 542.707 150.912 542.275 150.64C541.859 150.352 541.355 150.208 540.763 150.208ZM552.898 142.744V156.304C552.898 156.864 552.994 157.256 553.186 157.48C553.378 157.704 553.698 157.816 554.146 157.816C554.418 157.816 554.642 157.8 554.818 157.768C554.994 157.72 555.218 157.656 555.49 157.576L555.202 159.736C554.93 159.896 554.586 160.016 554.17 160.096C553.77 160.192 553.37 160.24 552.97 160.24C551.802 160.24 550.946 159.96 550.402 159.4C549.874 158.824 549.61 157.912 549.61 156.664V142.744H552.898ZM560.562 142.744V156.304C560.562 156.864 560.658 157.256 560.85 157.48C561.042 157.704 561.362 157.816 561.81 157.816C562.082 157.816 562.306 157.8 562.482 157.768C562.658 157.72 562.882 157.656 563.154 157.576L562.866 159.736C562.594 159.896 562.25 160.016 561.834 160.096C561.434 160.192 561.034 160.24 560.634 160.24C559.466 160.24 558.61 159.96 558.066 159.4C557.538 158.824 557.274 157.912 557.274 156.664V142.744H560.562ZM570.554 160.24C569.29 160.24 568.186 159.992 567.242 159.496C566.314 159 565.594 158.288 565.082 157.36C564.57 156.432 564.314 155.312 564.314 154C564.314 152.688 564.57 151.568 565.082 150.64C565.594 149.712 566.306 149 567.218 148.504C568.146 148.008 569.202 147.76 570.386 147.76C571.602 147.76 572.634 148.008 573.482 148.504C574.33 148.984 574.978 149.648 575.426 150.496C575.874 151.328 576.098 152.28 576.098 153.352C576.098 153.672 576.09 153.976 576.074 154.264C576.058 154.552 576.034 154.808 576.002 155.032H566.426V152.752H574.562L572.978 153.328C572.978 152.32 572.746 151.544 572.282 151C571.834 150.456 571.194 150.184 570.362 150.184C569.754 150.184 569.226 150.328 568.778 150.616C568.346 150.904 568.018 151.336 567.794 151.912C567.57 152.472 567.458 153.184 567.458 154.048C567.458 154.896 567.578 155.6 567.818 156.16C568.074 156.704 568.426 157.112 568.874 157.384C569.338 157.656 569.89 157.792 570.53 157.792C571.234 157.792 571.802 157.656 572.234 157.384C572.666 157.112 573.002 156.736 573.242 156.256L575.858 157.264C575.602 157.888 575.21 158.424 574.682 158.872C574.17 159.32 573.554 159.664 572.834 159.904C572.13 160.128 571.37 160.24 570.554 160.24ZM584.332 147.76C585.404 147.76 586.308 147.92 587.044 148.24C587.796 148.544 588.396 148.968 588.844 149.512C589.308 150.04 589.636 150.632 589.828 151.288L586.756 152.392C586.596 151.672 586.324 151.128 585.94 150.76C585.556 150.392 585.036 150.208 584.38 150.208C583.772 150.208 583.252 150.352 582.82 150.64C582.388 150.912 582.06 151.336 581.836 151.912C581.612 152.472 581.5 153.176 581.5 154.024C581.5 154.872 581.612 155.576 581.836 156.136C582.076 156.696 582.412 157.112 582.844 157.384C583.292 157.656 583.812 157.792 584.404 157.792C584.884 157.792 585.292 157.712 585.628 157.552C585.964 157.376 586.236 157.128 586.444 156.808C586.668 156.488 586.82 156.104 586.9 155.656L589.876 156.616C589.7 157.336 589.372 157.968 588.892 158.512C588.412 159.056 587.796 159.48 587.044 159.784C586.292 160.088 585.42 160.24 584.428 160.24C583.196 160.24 582.108 159.992 581.164 159.496C580.22 159 579.492 158.288 578.98 157.36C578.468 156.432 578.212 155.312 578.212 154C578.212 152.688 578.468 151.568 578.98 150.64C579.492 149.712 580.212 149 581.14 148.504C582.068 148.008 583.132 147.76 584.332 147.76ZM596.679 144.328V156.088C596.679 156.664 596.823 157.088 597.111 157.36C597.415 157.616 597.823 157.744 598.335 157.744C598.735 157.744 599.087 157.688 599.391 157.576C599.695 157.448 599.967 157.28 600.207 157.072L600.735 159.256C600.351 159.56 599.871 159.8 599.295 159.976C598.719 160.152 598.111 160.24 597.471 160.24C596.671 160.24 595.959 160.12 595.335 159.88C594.727 159.64 594.247 159.256 593.895 158.728C593.559 158.2 593.391 157.496 593.391 156.616V145.24L596.679 144.328ZM600.519 148V150.448H591.183V148H600.519ZM604.4 146.272C603.712 146.272 603.2 146.128 602.864 145.84C602.528 145.536 602.36 145.096 602.36 144.52C602.36 143.928 602.528 143.488 602.864 143.2C603.2 142.896 603.712 142.744 604.4 142.744C605.088 142.744 605.6 142.896 605.936 143.2C606.272 143.488 606.44 143.928 606.44 144.52C606.44 145.096 606.272 145.536 605.936 145.84C605.6 146.128 605.088 146.272 604.4 146.272ZM606.032 148V160H602.744V148H606.032ZM614.989 147.76C616.205 147.76 617.269 148.008 618.181 148.504C619.109 149 619.829 149.712 620.341 150.64C620.869 151.568 621.133 152.688 621.133 154C621.133 155.296 620.869 156.416 620.341 157.36C619.829 158.288 619.109 159 618.181 159.496C617.269 159.992 616.205 160.24 614.989 160.24C613.789 160.24 612.725 159.992 611.797 159.496C610.869 159 610.141 158.288 609.613 157.36C609.101 156.416 608.845 155.296 608.845 154C608.845 152.688 609.101 151.568 609.613 150.64C610.141 149.712 610.869 149 611.797 148.504C612.725 148.008 613.789 147.76 614.989 147.76ZM614.989 150.208C614.381 150.208 613.861 150.352 613.429 150.64C613.013 150.912 612.693 151.328 612.469 151.888C612.245 152.448 612.133 153.152 612.133 154C612.133 154.848 612.245 155.552 612.469 156.112C612.693 156.672 613.013 157.096 613.429 157.384C613.861 157.656 614.381 157.792 614.989 157.792C615.581 157.792 616.085 157.656 616.501 157.384C616.933 157.096 617.261 156.672 617.485 156.112C617.709 155.552 617.821 154.848 617.821 154C617.821 153.152 617.709 152.448 617.485 151.888C617.261 151.328 616.933 150.912 616.501 150.64C616.085 150.352 615.581 150.208 614.989 150.208ZM623.884 160V148H626.836L627.028 151.6L626.62 151.216C626.812 150.432 627.116 149.784 627.532 149.272C627.948 148.76 628.452 148.384 629.044 148.144C629.652 147.888 630.316 147.76 631.036 147.76C631.868 147.76 632.604 147.92 633.244 148.24C633.9 148.56 634.412 149.048 634.78 149.704C635.164 150.344 635.356 151.152 635.356 152.128V160H632.068V153.064C632.068 152.04 631.868 151.336 631.468 150.952C631.068 150.552 630.548 150.352 629.908 150.352C629.46 150.352 629.02 150.464 628.588 150.688C628.172 150.896 627.828 151.24 627.556 151.72C627.3 152.2 627.172 152.84 627.172 153.64V160H623.884Z" fill="#FFCE4E"/>
<circle cx="506" cy="53" r="53" fill="#372839"/>
<g clip-path="url(#clip0_336_419)">
<path d="M489.5 39.5C489.102 39.5 488.721 39.342 488.439 39.0607C488.158 38.7794 488 38.3978 488 38C488 37.6022 488.158 37.2206 488.439 36.9393C488.721 36.658 489.102 36.5 489.5 36.5H522.5C522.898 36.5 523.279 36.658 523.561 36.9393C523.842 37.2206 524 37.6022 524 38C524 38.3978 523.842 38.7794 523.561 39.0607C523.279 39.342 522.898 39.5 522.5 39.5H489.5ZM495.5 33.5C495.102 33.5 494.721 33.342 494.439 33.0607C494.158 32.7794 494 32.3978 494 32C494 31.6022 494.158 31.2206 494.439 30.9393C494.721 30.658 495.102 30.5 495.5 30.5H516.5C516.898 30.5 517.279 30.658 517.561 30.9393C517.842 31.2206 518 31.6022 518 32C518 32.3978 517.842 32.7794 517.561 33.0607C517.279 33.342 516.898 33.5 516.5 33.5H495.5ZM482 68C482 69.1935 482.474 70.3381 483.318 71.182C484.162 72.0259 485.307 72.5 486.5 72.5H525.5C526.693 72.5 527.838 72.0259 528.682 71.182C529.526 70.3381 530 69.1935 530 68V47C530 45.8065 529.526 44.6619 528.682 43.818C527.838 42.9741 526.693 42.5 525.5 42.5H486.5C485.307 42.5 484.162 42.9741 483.318 43.818C482.474 44.6619 482 45.8065 482 47V68ZM486.5 69.5C486.102 69.5 485.721 69.342 485.439 69.0607C485.158 68.7794 485 68.3978 485 68V47C485 46.6022 485.158 46.2206 485.439 45.9393C485.721 45.658 486.102 45.5 486.5 45.5H525.5C525.898 45.5 526.279 45.658 526.561 45.9393C526.842 46.2206 527 46.6022 527 47V68C527 68.3978 526.842 68.7794 526.561 69.0607C526.279 69.342 525.898 69.5 525.5 69.5H486.5Z" fill="#908294"/>
</g>
<path d="M7.848 143.92C9.288 143.92 10.552 144.168 11.64 144.664C12.728 145.16 13.656 145.896 14.424 146.872L12.576 149.008C11.92 148.176 11.2 147.568 10.416 147.184C9.648 146.784 8.752 146.584 7.728 146.584C7.056 146.584 6.496 146.672 6.048 146.848C5.616 147.024 5.296 147.256 5.088 147.544C4.896 147.832 4.8 148.152 4.8 148.504C4.8 148.936 4.968 149.304 5.304 149.608C5.64 149.896 6.216 150.136 7.032 150.328L9.984 151C11.552 151.352 12.672 151.88 13.344 152.584C14.032 153.272 14.376 154.168 14.376 155.272C14.376 156.312 14.104 157.208 13.56 157.96C13.016 158.696 12.256 159.264 11.28 159.664C10.304 160.048 9.184 160.24 7.92 160.24C6.816 160.24 5.8 160.112 4.872 159.856C3.96 159.584 3.144 159.216 2.424 158.752C1.704 158.288 1.104 157.752 0.624 157.144L2.496 154.912C2.864 155.424 3.32 155.88 3.864 156.28C4.408 156.68 5.024 157 5.712 157.24C6.416 157.464 7.152 157.576 7.92 157.576C8.576 157.576 9.128 157.504 9.576 157.36C10.04 157.2 10.384 156.984 10.608 156.712C10.848 156.424 10.968 156.08 10.968 155.68C10.968 155.264 10.824 154.912 10.536 154.624C10.264 154.32 9.752 154.088 9 153.928L5.784 153.208C4.856 152.984 4.056 152.696 3.384 152.344C2.728 151.976 2.224 151.512 1.872 150.952C1.536 150.376 1.368 149.696 1.368 148.912C1.368 147.968 1.624 147.12 2.136 146.368C2.648 145.616 3.384 145.024 4.344 144.592C5.32 144.144 6.488 143.92 7.848 143.92ZM22.7413 160.24C21.4773 160.24 20.3733 159.992 19.4293 159.496C18.5013 159 17.7813 158.288 17.2693 157.36C16.7573 156.432 16.5013 155.312 16.5013 154C16.5013 152.688 16.7573 151.568 17.2693 150.64C17.7813 149.712 18.4933 149 19.4053 148.504C20.3333 148.008 21.3893 147.76 22.5733 147.76C23.7893 147.76 24.8213 148.008 25.6693 148.504C26.5173 148.984 27.1653 149.648 27.6133 150.496C28.0613 151.328 28.2853 152.28 28.2853 153.352C28.2853 153.672 28.2773 153.976 28.2613 154.264C28.2453 154.552 28.2213 154.808 28.1893 155.032H18.6133V152.752H26.7493L25.1653 153.328C25.1653 152.32 24.9333 151.544 24.4693 151C24.0213 150.456 23.3813 150.184 22.5493 150.184C21.9413 150.184 21.4133 150.328 20.9653 150.616C20.5333 150.904 20.2053 151.336 19.9813 151.912C19.7573 152.472 19.6453 153.184 19.6453 154.048C19.6453 154.896 19.7653 155.6 20.0053 156.16C20.2613 156.704 20.6133 157.112 21.0613 157.384C21.5253 157.656 22.0773 157.792 22.7173 157.792C23.4213 157.792 23.9893 157.656 24.4213 157.384C24.8533 157.112 25.1893 156.736 25.4293 156.256L28.0453 157.264C27.7893 157.888 27.3973 158.424 26.8693 158.872C26.3573 159.32 25.7413 159.664 25.0213 159.904C24.3173 160.128 23.5573 160.24 22.7413 160.24ZM35.1088 144.328V156.088C35.1088 156.664 35.2528 157.088 35.5408 157.36C35.8448 157.616 36.2528 157.744 36.7648 157.744C37.1648 157.744 37.5168 157.688 37.8208 157.576C38.1248 157.448 38.3968 157.28 38.6368 157.072L39.1648 159.256C38.7808 159.56 38.3008 159.8 37.7248 159.976C37.1488 160.152 36.5408 160.24 35.9008 160.24C35.1008 160.24 34.3888 160.12 33.7648 159.88C33.1568 159.64 32.6768 159.256 32.3248 158.728C31.9888 158.2 31.8208 157.496 31.8208 156.616V145.24L35.1088 144.328ZM38.9488 148V150.448H29.6128V148H38.9488ZM62.0693 144.16V153.76C62.0693 155.92 61.4933 157.544 60.3412 158.632C59.1893 159.704 57.5093 160.24 55.3013 160.24C53.0933 160.24 51.4133 159.704 50.2613 158.632C49.1093 157.544 48.5333 155.92 48.5333 153.76V144.16H51.8453V153.616C51.8453 154.944 52.1253 155.928 52.6853 156.568C53.2613 157.208 54.1333 157.528 55.3013 157.528C56.4693 157.528 57.3333 157.208 57.8933 156.568C58.4533 155.928 58.7333 154.944 58.7333 153.616V144.16H62.0693ZM65.478 165.04V148H68.43L68.646 151.816L68.238 151.384C68.382 150.68 68.646 150.056 69.03 149.512C69.43 148.968 69.934 148.544 70.542 148.24C71.15 147.92 71.83 147.76 72.582 147.76C73.558 147.76 74.43 148.008 75.198 148.504C75.966 149 76.566 149.712 76.998 150.64C77.446 151.552 77.67 152.664 77.67 153.976C77.67 155.288 77.446 156.416 76.998 157.36C76.55 158.288 75.934 159 75.15 159.496C74.382 159.992 73.502 160.24 72.51 160.24C71.454 160.24 70.574 159.944 69.87 159.352C69.182 158.76 68.71 158.016 68.454 157.12L68.766 156.616V165.04H65.478ZM71.55 157.72C72.43 157.72 73.118 157.408 73.614 156.784C74.126 156.144 74.382 155.216 74.382 154C74.382 152.784 74.134 151.864 73.638 151.24C73.158 150.6 72.478 150.28 71.598 150.28C71.038 150.28 70.542 150.432 70.11 150.736C69.694 151.024 69.366 151.448 69.126 152.008C68.886 152.552 68.766 153.216 68.766 154C68.766 154.768 68.878 155.432 69.102 155.992C69.326 156.552 69.646 156.984 70.062 157.288C70.494 157.576 70.99 157.72 71.55 157.72ZM100.12 144.16L94.5039 154.072V160H91.1919V154.072L85.5759 144.16H89.1039L91.6479 148.912L92.8479 151.384L94.0719 148.912L96.6159 144.16H100.12ZM105.263 147.76C106.479 147.76 107.543 148.008 108.455 148.504C109.383 149 110.103 149.712 110.615 150.64C111.143 151.568 111.407 152.688 111.407 154C111.407 155.296 111.143 156.416 110.615 157.36C110.103 158.288 109.383 159 108.455 159.496C107.543 159.992 106.479 160.24 105.263 160.24C104.063 160.24 102.999 159.992 102.071 159.496C101.143 159 100.415 158.288 99.8865 157.36C99.3745 156.416 99.1185 155.296 99.1185 154C99.1185 152.688 99.3745 151.568 99.8865 150.64C100.415 149.712 101.143 149 102.071 148.504C102.999 148.008 104.063 147.76 105.263 147.76ZM105.263 150.208C104.655 150.208 104.135 150.352 103.703 150.64C103.287 150.912 102.967 151.328 102.743 151.888C102.519 152.448 102.407 153.152 102.407 154C102.407 154.848 102.519 155.552 102.743 156.112C102.967 156.672 103.287 157.096 103.703 157.384C104.135 157.656 104.655 157.792 105.263 157.792C105.855 157.792 106.359 157.656 106.775 157.384C107.207 157.096 107.535 156.672 107.759 156.112C107.983 155.552 108.095 154.848 108.095 154C108.095 153.152 107.983 152.448 107.759 151.888C107.535 151.328 107.207 150.912 106.775 150.64C106.359 150.352 105.855 150.208 105.263 150.208ZM118.334 160.24C117.534 160.24 116.814 160.096 116.174 159.808C115.534 159.52 115.022 159.064 114.638 158.44C114.27 157.8 114.086 156.976 114.086 155.968V148H117.374V155.176C117.374 156.104 117.566 156.752 117.95 157.12C118.334 157.472 118.886 157.648 119.606 157.648C119.942 157.648 120.27 157.592 120.59 157.48C120.91 157.352 121.19 157.16 121.43 156.904C121.686 156.648 121.886 156.32 122.03 155.92C122.174 155.504 122.246 155.016 122.246 154.456V148H125.534V160H122.606L122.486 157.912C122.086 158.712 121.534 159.304 120.83 159.688C120.142 160.056 119.31 160.24 118.334 160.24ZM128.994 160V148H131.85L132.066 150.352C132.386 149.52 132.85 148.88 133.458 148.432C134.082 147.984 134.858 147.76 135.786 147.76C136.058 147.76 136.306 147.784 136.53 147.832C136.754 147.88 136.938 147.944 137.082 148.024L136.698 150.784C136.538 150.72 136.338 150.672 136.098 150.64C135.874 150.608 135.578 150.592 135.21 150.592C134.73 150.592 134.266 150.712 133.818 150.952C133.37 151.176 133.002 151.528 132.714 152.008C132.426 152.472 132.282 153.064 132.282 153.784V160H128.994ZM148.853 160L144.245 144.16H147.773L150.893 157.24L154.061 144.16H157.229L160.445 157.24L163.541 144.16H166.925L162.317 160H158.597L156.389 151.36L155.645 147.616H155.597L154.853 151.36L152.669 160H148.853ZM175.021 152.344C175.021 151.656 174.821 151.12 174.421 150.736C174.037 150.352 173.525 150.16 172.885 150.16C172.293 150.16 171.773 150.312 171.325 150.616C170.877 150.92 170.549 151.424 170.341 152.128L167.533 151.264C167.805 150.208 168.397 149.36 169.309 148.72C170.237 148.08 171.477 147.76 173.029 147.76C174.085 147.76 175.005 147.928 175.789 148.264C176.573 148.584 177.181 149.072 177.613 149.728C178.061 150.384 178.285 151.208 178.285 152.2V157.072C178.285 157.68 178.573 157.984 179.149 157.984C179.421 157.984 179.677 157.944 179.917 157.864L179.725 159.904C179.309 160.112 178.789 160.216 178.165 160.216C177.605 160.216 177.101 160.12 176.653 159.928C176.205 159.736 175.853 159.448 175.597 159.064C175.341 158.664 175.213 158.168 175.213 157.576V157.48L175.789 157.384C175.693 157.992 175.429 158.512 174.997 158.944C174.565 159.36 174.037 159.68 173.413 159.904C172.805 160.128 172.173 160.24 171.517 160.24C170.701 160.24 169.997 160.12 169.405 159.88C168.813 159.624 168.357 159.256 168.037 158.776C167.717 158.296 167.557 157.704 167.557 157C167.557 156.104 167.845 155.376 168.421 154.816C168.997 154.24 169.821 153.848 170.893 153.64L175.405 152.728L175.381 154.768L172.501 155.344C171.957 155.456 171.541 155.608 171.253 155.8C170.981 155.976 170.845 156.272 170.845 156.688C170.845 157.088 170.989 157.392 171.277 157.6C171.581 157.808 171.941 157.912 172.357 157.912C172.693 157.912 173.021 157.872 173.341 157.792C173.661 157.712 173.949 157.584 174.205 157.408C174.461 157.232 174.661 156.992 174.805 156.688C174.949 156.384 175.021 156.016 175.021 155.584V152.344ZM185.202 142.744V156.304C185.202 156.864 185.298 157.256 185.49 157.48C185.682 157.704 186.002 157.816 186.45 157.816C186.722 157.816 186.946 157.8 187.122 157.768C187.298 157.72 187.522 157.656 187.794 157.576L187.506 159.736C187.234 159.896 186.89 160.016 186.474 160.096C186.074 160.192 185.674 160.24 185.274 160.24C184.106 160.24 183.25 159.96 182.706 159.4C182.178 158.824 181.914 157.912 181.914 156.664V142.744H185.202ZM192.866 142.744V156.304C192.866 156.864 192.962 157.256 193.154 157.48C193.346 157.704 193.666 157.816 194.114 157.816C194.386 157.816 194.61 157.8 194.786 157.768C194.962 157.72 195.186 157.656 195.458 157.576L195.17 159.736C194.898 159.896 194.554 160.016 194.138 160.096C193.738 160.192 193.338 160.24 192.938 160.24C191.77 160.24 190.914 159.96 190.37 159.4C189.842 158.824 189.578 157.912 189.578 156.664V142.744H192.866ZM202.859 160.24C201.595 160.24 200.491 159.992 199.547 159.496C198.619 159 197.899 158.288 197.387 157.36C196.875 156.432 196.619 155.312 196.619 154C196.619 152.688 196.875 151.568 197.387 150.64C197.899 149.712 198.611 149 199.523 148.504C200.451 148.008 201.507 147.76 202.691 147.76C203.907 147.76 204.939 148.008 205.787 148.504C206.635 148.984 207.283 149.648 207.731 150.496C208.179 151.328 208.403 152.28 208.403 153.352C208.403 153.672 208.395 153.976 208.379 154.264C208.363 154.552 208.339 154.808 208.307 155.032H198.73V152.752H206.867L205.283 153.328C205.283 152.32 205.051 151.544 204.587 151C204.139 150.456 203.499 150.184 202.667 150.184C202.059 150.184 201.531 150.328 201.083 150.616C200.651 150.904 200.323 151.336 200.099 151.912C199.875 152.472 199.763 153.184 199.763 154.048C199.763 154.896 199.883 155.6 200.123 156.16C200.379 156.704 200.731 157.112 201.179 157.384C201.643 157.656 202.195 157.792 202.835 157.792C203.539 157.792 204.107 157.656 204.539 157.384C204.971 157.112 205.307 156.736 205.547 156.256L208.163 157.264C207.907 157.888 207.515 158.424 206.987 158.872C206.475 159.32 205.859 159.664 205.139 159.904C204.435 160.128 203.675 160.24 202.859 160.24ZM215.226 144.328V156.088C215.226 156.664 215.37 157.088 215.658 157.36C215.962 157.616 216.37 157.744 216.882 157.744C217.282 157.744 217.634 157.688 217.938 157.576C218.242 157.448 218.514 157.28 218.754 157.072L219.282 159.256C218.898 159.56 218.418 159.8 217.842 159.976C217.266 160.152 216.658 160.24 216.018 160.24C215.218 160.24 214.506 160.12 213.882 159.88C213.274 159.64 212.794 159.256 212.442 158.728C212.106 158.2 211.938 157.496 211.938 156.616V145.24L215.226 144.328ZM219.066 148V150.448H209.73V148H219.066Z" fill="#FFCE4E"/>
<circle cx="110" cy="53" r="53" fill="#372839"/>
<path d="M128.667 48.9997H127.334V40.9997C127.334 40.646 127.193 40.3069 126.943 40.0569C126.693 39.8068 126.354 39.6663 126 39.6663H94.0002C93.6845 39.6715 93.3772 39.5644 93.133 39.3642C92.8888 39.164 92.7236 38.8836 92.6668 38.573V38.093C92.7236 37.7824 92.8888 37.502 93.133 37.3018C93.3772 37.1016 93.6845 36.9945 94.0002 36.9997H125.44C125.794 36.9997 126.133 36.8592 126.383 36.6091C126.633 36.3591 126.774 36.02 126.774 35.6663C126.774 35.3127 126.633 34.9736 126.383 34.7235C126.133 34.4735 125.794 34.333 125.44 34.333H94.0002C92.9393 34.333 91.9219 34.7544 91.1718 35.5046C90.4216 36.2547 90.0002 37.2721 90.0002 38.333C89.9908 38.4929 89.9908 38.6531 90.0002 38.813V66.2397C90.0054 66.9576 90.152 67.6674 90.4316 68.3286C90.7111 68.9899 91.1182 69.5896 91.6296 70.0935C92.1409 70.5974 92.7465 70.9957 93.4118 71.2655C94.077 71.5354 94.789 71.6716 95.5068 71.6663H126C126.354 71.6663 126.693 71.5259 126.943 71.2758C127.193 71.0258 127.334 70.6866 127.334 70.333V62.333H128.667C129.02 62.333 129.36 62.1925 129.61 61.9425C129.86 61.6924 130 61.3533 130 60.9997V50.333C130 49.9794 129.86 49.6402 129.61 49.3902C129.36 49.1401 129.02 48.9997 128.667 48.9997ZM124.667 68.9997H95.5068C94.7653 69.0068 94.0508 68.7209 93.519 68.204C92.9871 67.6871 92.6809 66.9812 92.6668 66.2397V42.173C93.0996 42.2984 93.55 42.3525 94.0002 42.333H124.667V48.9997H115.334C113.565 48.9997 111.87 49.702 110.619 50.9523C109.369 52.2025 108.667 53.8982 108.667 55.6663C108.667 57.4344 109.369 59.1301 110.619 60.3804C111.87 61.6306 113.565 62.333 115.334 62.333H124.667V68.9997ZM127.334 59.6663H115.334C114.273 59.6663 113.255 59.2449 112.505 58.4948C111.755 57.7446 111.334 56.7272 111.334 55.6663C111.334 54.6055 111.755 53.5881 112.505 52.8379C113.255 52.0878 114.273 51.6663 115.334 51.6663H127.334V59.6663Z" fill="#908294"/>
<path d="M116.68 57.667C117.785 57.667 118.68 56.7716 118.68 55.667C118.68 54.5624 117.785 53.667 116.68 53.667C115.575 53.667 114.68 54.5624 114.68 55.667C114.68 56.7716 115.575 57.667 116.68 57.667Z" fill="#908294"/>
<defs>
<clipPath id="clip0_336_419">
<rect width="48" height="48" fill="white" transform="translate(482 29)"/>
</clipPath>
</defs>
</svg>
